<svg width="48" height="48" viewBox="0 0 48 48" fill="none" xmlns="http://www.w3.org/2000/svg">
<!-- <ellipse opacity="0.3" cx="23.9975" cy="24.0001" rx="23.7749" ry="23.7749" fill="#00A645"/> -->
<!-- <circle opacity="0.7" cx="24.0003" cy="24.0004" r="20.3167" fill="#00A645"/> -->
<path fill-rule="evenodd" clip-rule="evenodd" d="M34.4227 17.5191C35.279 18.2588 35.3736 19.5525 34.6339 20.4088L25.1565 31.3809C24.1924 32.497 22.4895 32.5762 21.426 31.5544L15.016 25.3957C14.2001 24.6118 14.1742 23.3148 14.9581 22.4989C15.7421 21.683 17.039 21.657 17.855 22.441L23.1061 27.4862L31.533 17.7303C32.2727 16.874 33.5664 16.7795 34.4227 17.5191Z" fill="white"/>
<!-- <path opacity="0.3" fill-rule="evenodd" clip-rule="evenodd" d="M31.3563 17.5191C32.2126 18.2588 32.3072 19.5525 31.5675 20.4088L22.0901 31.3809C21.126 32.497 19.4231 32.5762 18.3596 31.5544L11.9496 25.3957C11.1337 24.6118 11.1078 23.3148 11.8917 22.4989C12.6757 21.683 13.9726 21.657 14.7886 22.441L20.0396 27.4862L28.4666 17.7303C29.2063 16.874 30.5 16.7795 31.3563 17.5191Z" fill="white"/> -->
</svg>